<?xml version="1.0" standalone="no"?>
<!DOCTYPE svg PUBLIC "-//W3C//DTD SVG 20010904//EN"
 "http://www.w3.org/TR/2001/REC-SVG-20010904/DTD/svg10.dtd">
<svg version="1.0" xmlns="http://www.w3.org/2000/svg"
 width="128.000000pt" height="128.000000pt" viewBox="0 0 128.000000 128.000000"
 preserveAspectRatio="xMidYMid meet">

<g transform="translate(0.000000,128.000000) scale(0.100000,-0.100000)"
fill="#000000" stroke="none">
<path d="M604 1240 c-6 -6 -48 -15 -95 -20 -46 -6 -100 -15 -119 -20 -19 -5
-51 -7 -71 -4 -31 5 -40 3 -51 -15 -7 -12 -38 -38 -70 -57 -63 -39 -114 -91
-134 -140 -11 -26 -14 -103 -14 -341 0 -291 1 -309 21 -350 23 -47 80 -98 146
-132 23 -11 46 -29 52 -38 7 -13 24 -18 68 -19 78 -1 244 -24 263 -35 33 -20
43 -22 59 -11 9 7 21 14 26 16 21 8 202 29 258 30 44 1 61 6 68 19 6 9 29 27
52 38 66 34 123 85 146 132 20 41 21 59 21 352 0 288 -1 311 -20 350 -11 23
-33 54 -50 70 l-30 29 60 38 c60 38 73 61 48 86 -20 20 -40 14 -109 -33 -60
-41 -69 -44 -95 -35 -16 6 -37 20 -47 31 -12 12 -29 19 -45 18 -15 -1 -58 3
-97 9 -38 6 -91 14 -117 17 -26 3 -50 10 -53 16 -8 12 -58 12 -71 -1z m146
-70 c83 -9 260 -53 260 -65 0 -2 -54 -43 -120 -90 -114 -80 -122 -85 -159 -79
-34 5 -43 3 -65 -19 -54 -54 -14 -128 64 -117 25 3 49 31 56 64 5 27 21 40
145 114 77 45 145 82 152 82 20 0 64 -50 82 -93 22 -53 7 -101 -47 -153 -58
-55 -91 -74 -130 -74 -17 0 -41 -9 -52 -19 -27 -26 -173 -55 -229 -47 -53 8
-81 8 -134 0 -56 -8 -202 21 -229 47 -11 10 -35 19 -52 19 -39 0 -72 19 -130
74 -71 68 -75 144 -9 214 59 63 223 126 365 141 110 12 126 12 232 1z m-512
-474 c36 -12 42 -52 42 -282 0 -254 6 -241 -89 -176 -89 61 -91 70 -91 329 l0
223 60 -44 c34 -25 68 -47 78 -50z m924 -385 c-10 -19 -43 -52 -73 -72 -95
-66 -89 -79 -89 175 0 239 5 267 50 286 14 6 48 28 75 49 l50 38 3 -220 c2
-197 1 -224 -16 -256z m-727 324 c39 -8 89 -15 111 -15 23 0 47 -6 53 -14 8
-9 11 -82 9 -242 l-3 -229 -61 1 c-34 0 -89 7 -123 14 -91 19 -91 18 -91 280
0 252 -11 230 105 205z m515 -205 c0 -262 0 -261 -91 -280 -34 -7 -89 -14
-123 -14 l-61 -1 -3 229 c-2 160 1 233 9 242 6 8 32 14 58 15 25 0 71 7 101
14 30 7 67 13 83 14 l27 1 0 -220z"/>
</g>
</svg>
