<?xml version="1.0" standalone="no"?>
<!DOCTYPE svg PUBLIC "-//W3C//DTD SVG 20010904//EN"
 "http://www.w3.org/TR/2001/REC-SVG-20010904/DTD/svg10.dtd">
<svg version="1.0" xmlns="http://www.w3.org/2000/svg"
 width="128.000000pt" height="128.000000pt" viewBox="0 0 128.000000 128.000000"
 preserveAspectRatio="xMidYMid meet">

<g transform="translate(0.000000,128.000000) scale(0.100000,-0.100000)"
fill="#000000" stroke="none">
<path d="M992 1268 c-7 -7 -12 -24 -12 -38 0 -14 -10 -55 -21 -91 -21 -63 -27
-69 -369 -414 -354 -356 -589 -615 -590 -648 0 -23 56 -77 79 -77 17 0 249
196 356 301 53 52 63 58 78 46 17 -12 16 -14 -7 -36 -30 -28 -34 -61 -8 -61 9
0 118 101 242 225 211 211 224 226 208 242 -16 16 -19 16 -36 0 -24 -22 -29
-21 -35 2 -4 15 20 44 97 118 106 102 144 124 246 139 43 7 59 17 60 38 0 13
-252 266 -265 266 -6 0 -16 -5 -23 -12z m200 -238 c-4 -4 -32 -14 -62 -23 -52
-16 -70 -25 -134 -71 -27 -19 -27 -19 -53 7 l-26 26 25 33 c34 45 64 104 78
157 l12 44 84 -84 c46 -46 80 -86 76 -89z m-285 -122 c13 -12 23 -27 23 -33 0
-19 -85 -95 -116 -104 -21 -5 -32 -17 -40 -39 -13 -40 -26 -53 -66 -66 -22 -8
-34 -19 -39 -39 -11 -39 -26 -56 -63 -65 -23 -6 -34 -17 -42 -40 -13 -40 -26
-53 -66 -66 -23 -8 -34 -19 -40 -41 -4 -17 -25 -48 -48 -70 l-40 -39 -30 29
-31 29 283 283 c156 156 285 283 287 283 3 0 15 -10 28 -22z m-70 -246 c9 -6
3 -17 -21 -41 -33 -32 -34 -32 -41 -11 -4 14 -1 28 11 41 18 20 32 23 51 11z
m-123 -143 c-15 -16 -31 -29 -35 -29 -17 0 -14 37 4 57 16 18 24 20 39 12 19
-10 19 -12 -8 -40z m-87 -67 c9 -6 3 -17 -21 -41 -33 -32 -34 -32 -41 -11 -4
14 -1 28 11 41 18 20 32 23 51 11z m-327 -157 c28 -30 39 -16 -114 -149 -95
-83 -131 -103 -124 -71 3 17 197 245 208 245 3 0 17 -11 30 -25z"/>
</g>
</svg>
