<?xml version="1.0" standalone="no"?>
<!DOCTYPE svg PUBLIC "-//W3C//DTD SVG 20010904//EN"
 "http://www.w3.org/TR/2001/REC-SVG-20010904/DTD/svg10.dtd">
<svg version="1.0" xmlns="http://www.w3.org/2000/svg"
 width="128.000000pt" height="128.000000pt" viewBox="0 0 128.000000 128.000000"
 preserveAspectRatio="xMidYMid meet">

<g transform="translate(0.000000,128.000000) scale(0.100000,-0.100000)"
fill="#000000" stroke="none">
<path d="M246 1268 c-24 -14 -20 -55 20 -173 23 -71 36 -128 37 -170 2 -59 -2
-70 -66 -196 -84 -165 -111 -266 -105 -384 9 -176 124 -305 298 -337 66 -13
157 0 212 28 19 10 65 14 162 14 131 0 136 -1 160 -25 31 -31 66 -32 92 -4 15
17 19 36 19 94 0 58 -4 77 -19 94 -26 28 -61 27 -92 -4 -22 -22 -34 -25 -96
-25 -63 0 -69 2 -63 18 31 75 37 108 33 180 -8 173 -126 303 -298 331 -35 6
-65 12 -67 15 -8 8 70 52 122 69 28 9 84 21 125 27 41 6 89 13 106 16 39 6 57
25 52 56 -2 18 -62 59 -293 199 -159 98 -297 179 -306 182 -9 2 -24 0 -33 -5z
m311 -220 l268 -163 -70 -8 c-90 -9 -176 -32 -241 -61 -123 -56 -269 -281
-281 -431 -12 -152 98 -276 247 -279 79 -1 141 26 193 84 148 165 36 420 -186
420 -32 0 -73 -7 -93 -15 l-35 -14 18 30 c27 46 36 50 102 50 83 1 151 -24
208 -75 96 -86 128 -218 84 -336 -78 -207 -354 -262 -504 -101 -65 70 -91 144
-84 247 7 103 46 220 108 329 27 47 54 104 60 129 14 56 0 149 -40 269 -16 48
-28 87 -26 87 3 0 125 -73 272 -162z m24 -511 c80 -42 127 -144 103 -224 -6
-23 -9 -13 -14 50 -7 90 -27 120 -81 120 -54 0 -79 -39 -79 -123 0 -71 -10
-91 -35 -70 -10 9 -15 33 -15 79 -1 72 -11 94 -54 111 -20 7 -34 6 -55 -5 -36
-18 -41 -32 -41 -110 0 -68 -14 -94 -23 -46 -13 63 10 135 60 185 60 61 156
74 234 33z m-171 -190 c4 -67 8 -82 29 -98 30 -25 62 -24 95 2 23 18 26 27 26
84 0 76 6 95 30 95 15 0 18 -11 22 -74 2 -56 8 -80 23 -96 l20 -22 -38 -33
c-78 -68 -195 -64 -274 7 -21 20 -21 20 -2 52 14 22 19 50 19 99 0 65 1 68 23
65 20 -3 22 -9 27 -81z m610 -232 c0 -37 -4 -65 -10 -65 -6 0 -10 28 -10 65 0
37 4 65 10 65 6 0 10 -28 10 -65z m-70 0 c0 -12 -18 -15 -106 -15 -94 0 -105
2 -94 15 9 11 35 15 106 15 77 0 94 -3 94 -15z"/>
</g>
</svg>
