<?xml version="1.0" standalone="no"?>
<!DOCTYPE svg PUBLIC "-//W3C//DTD SVG 20010904//EN"
 "http://www.w3.org/TR/2001/REC-SVG-20010904/DTD/svg10.dtd">
<svg version="1.0" xmlns="http://www.w3.org/2000/svg"
 width="128.000000pt" height="128.000000pt" viewBox="0 0 128.000000 128.000000"
 preserveAspectRatio="xMidYMid meet">

<g transform="translate(0.000000,128.000000) scale(0.100000,-0.100000)"
fill="#000000" stroke="none">
<path d="M1035 1269 c-4 -5 -4 -21 -1 -35 7 -26 -3 -31 -22 -12 -19 19 -44 -9
-31 -34 8 -14 7 -25 -5 -43 -9 -14 -16 -30 -16 -37 0 -7 -41 -54 -91 -104
l-92 -92 -36 22 c-60 36 -90 46 -142 46 -88 0 -148 -45 -180 -133 -20 -58 -41
-73 -121 -91 -101 -23 -165 -55 -221 -110 -136 -136 -84 -331 139 -526 159
-140 317 -155 431 -42 54 55 87 120 109 220 18 81 35 103 93 120 134 41 175
210 79 331 l-19 25 93 93 c51 51 98 93 106 93 7 0 23 7 37 16 18 12 29 13 43
5 25 -13 53 12 34 31 -20 20 -13 28 17 22 34 -7 46 7 31 37 -9 15 -9 24 -1 32
26 26 12 67 -43 123 -56 55 -97 69 -123 43 -8 -8 -17 -8 -31 0 -26 14 -29 14
-37 0z m155 -84 l44 -45 -64 -65 c-35 -36 -71 -65 -80 -65 -8 0 -103 -88 -211
-196 l-196 -196 -32 33 -33 32 196 196 c108 108 196 203 196 211 0 13 117 140
130 140 3 0 26 -20 50 -45z m-501 -281 l53 -27 -93 -93 c-51 -51 -104 -96
-118 -99 -56 -13 -91 -61 -91 -127 0 -41 5 -52 35 -83 31 -30 42 -35 83 -35
66 0 114 35 127 91 7 32 179 204 194 195 22 -14 51 -86 51 -126 0 -69 -22 -98
-105 -135 -41 -19 -81 -44 -89 -57 -8 -13 -21 -55 -29 -94 -21 -96 -38 -135
-87 -188 -104 -113 -238 -94 -398 58 -177 168 -214 309 -111 421 50 54 103 81
200 101 41 8 84 22 96 29 12 8 37 47 55 86 25 55 41 75 68 90 49 25 97 23 159
-7z m-74 -289 c69 -68 -31 -170 -102 -103 -33 30 -31 80 3 107 35 28 69 26 99
-4z"/>
<path d="M1082 1147 c-54 -54 -61 -67 -39 -67 22 0 112 99 101 110 -7 7 -27
-8 -62 -43z"/>
<path d="M1127 1102 c-43 -44 -59 -72 -39 -72 14 0 113 106 106 113 -12 12
-19 8 -67 -41z"/>
<path d="M255 460 c-19 -21 -18 -22 83 -122 100 -101 101 -102 122 -83 11 10
20 23 20 29 0 15 -182 196 -196 196 -6 0 -19 -9 -29 -20z"/>
</g>
</svg>
