<?xml version="1.0" standalone="no"?>
<!DOCTYPE svg PUBLIC "-//W3C//DTD SVG 20010904//EN"
 "http://www.w3.org/TR/2001/REC-SVG-20010904/DTD/svg10.dtd">
<svg version="1.0" xmlns="http://www.w3.org/2000/svg"
 width="128.000000pt" height="128.000000pt" viewBox="0 0 128.000000 128.000000"
 preserveAspectRatio="xMidYMid meet">

<g transform="translate(0.000000,128.000000) scale(0.100000,-0.100000)"
fill="#000000" stroke="none">
<path d="M810 1246 c-94 -20 -164 -81 -205 -178 -8 -21 -15 -48 -15 -61 0 -41
-197 -324 -323 -466 -63 -70 -69 -96 -32 -131 l24 -23 -43 -48 c-74 -82 -82
-175 -21 -247 47 -56 140 -78 212 -51 15 6 120 102 233 214 113 112 218 208
233 214 94 36 190 -39 173 -134 -6 -29 -30 -60 -112 -145 -72 -75 -102 -113
-98 -124 3 -9 13 -16 22 -16 24 0 209 191 227 234 61 146 -82 293 -230 236
-16 -6 -125 -105 -241 -220 -174 -173 -216 -210 -246 -215 -54 -10 -94 2 -128
41 -49 56 -39 124 29 188 29 28 32 28 49 13 30 -27 50 -20 120 42 69 60 248
195 361 270 38 27 86 49 122 57 190 44 283 233 198 403 -59 117 -179 174 -309
147z m131 -56 c88 -25 166 -138 157 -229 -3 -25 -13 -64 -22 -86 l-17 -39
-159 159 c-123 123 -157 162 -148 172 24 29 123 41 189 23z m66 -394 c-8 -23
-79 -48 -135 -48 -73 0 -126 25 -175 83 -61 71 -71 164 -25 252 l20 40 159
-159 c87 -87 158 -163 156 -168z m-337 -21 c17 -17 52 -42 77 -55 l47 -23 -24
-16 c-91 -60 -276 -197 -340 -253 l-78 -66 -45 46 -46 47 60 70 c62 72 179
229 240 322 l34 51 22 -45 c11 -25 35 -60 53 -78z"/>
<path d="M541 686 c-45 -46 -51 -78 -17 -84 24 -5 96 65 96 94 0 17 -17 34
-34 34 -1 0 -21 -20 -45 -44z"/>
</g>
</svg>
