<?xml version="1.0" standalone="no"?>
<!DOCTYPE svg PUBLIC "-//W3C//DTD SVG 20010904//EN"
 "http://www.w3.org/TR/2001/REC-SVG-20010904/DTD/svg10.dtd">
<svg version="1.0" xmlns="http://www.w3.org/2000/svg"
 width="128.000000pt" height="128.000000pt" viewBox="0 0 128.000000 128.000000"
 preserveAspectRatio="xMidYMid meet">

<g transform="translate(0.000000,128.000000) scale(0.100000,-0.100000)"
fill="#000000" stroke="none">
<path d="M364 1270 c-32 -13 -72 -66 -120 -161 -24 -49 -53 -93 -65 -100 -19
-10 -47 -9 -113 3 -28 4 -69 -57 -55 -83 17 -33 69 -53 140 -54 55 0 72 4 108
28 24 16 57 51 74 78 17 27 34 46 38 42 4 -4 76 -188 159 -408 83 -220 165
-421 181 -447 69 -107 160 -161 270 -160 78 1 123 17 184 67 98 81 110 181 45
364 -56 158 -52 211 20 241 39 16 51 57 23 79 -31 25 -397 135 -426 127 -41
-10 -41 -35 -2 -91 25 -37 35 -62 35 -91 0 -90 20 -160 80 -279 33 -66 60
-125 60 -131 0 -22 -28 -22 -48 -1 -32 36 -152 311 -145 335 3 15 0 24 -11 28
-23 9 -68 101 -61 124 4 12 -1 23 -14 32 -24 17 -63 102 -55 122 3 8 -4 22
-15 33 -11 10 -43 68 -71 128 -28 61 -61 121 -73 133 -43 47 -95 62 -143 42z
m96 -67 c16 -16 49 -72 74 -128 43 -96 44 -99 25 -113 -23 -16 -25 -64 -4 -82
8 -7 26 -10 40 -7 21 3 29 -1 41 -24 13 -26 13 -30 -1 -36 -23 -8 -35 -44 -22
-68 14 -29 28 -36 58 -29 23 4 28 1 37 -24 8 -24 7 -31 -9 -40 -23 -15 -25
-64 -4 -82 8 -7 27 -10 41 -7 24 4 29 -1 56 -62 90 -200 118 -251 148 -266 40
-21 57 -19 85 10 35 34 31 66 -19 159 -63 116 -84 178 -94 284 -7 65 -15 99
-27 112 -28 31 -12 34 57 12 35 -12 110 -35 168 -52 l104 -32 -32 -14 c-74
-31 -80 -141 -17 -304 32 -83 36 -104 33 -162 -3 -65 -6 -70 -48 -113 -24 -24
-58 -51 -76 -60 -40 -19 -144 -20 -189 -1 -44 19 -118 93 -145 146 -12 23 -89
220 -172 438 -82 219 -157 409 -164 425 -8 15 -23 27 -34 27 -11 0 -27 -12
-36 -27 -55 -91 -88 -132 -115 -143 -44 -19 -48 -3 -7 30 23 19 55 66 87 130
70 135 103 156 161 103z m-330 -264 c0 -10 -31 -12 -54 -3 -9 3 -14 9 -11 13
6 10 65 1 65 -10z"/>
<path d="M990 594 c-10 -11 -11 -23 -4 -42 17 -48 84 -38 84 12 0 43 -53 63
-80 30z"/>
<path d="M1056 438 c-13 -19 -14 -25 -2 -43 19 -29 51 -31 70 -3 20 28 20 33
0 52 -22 22 -50 20 -68 -6z"/>
</g>
</svg>
