<?xml version="1.0" standalone="no"?>
<!DOCTYPE svg PUBLIC "-//W3C//DTD SVG 20010904//EN"
 "http://www.w3.org/TR/2001/REC-SVG-20010904/DTD/svg10.dtd">
<svg version="1.0" xmlns="http://www.w3.org/2000/svg"
 width="128.000000pt" height="128.000000pt" viewBox="0 0 128.000000 128.000000"
 preserveAspectRatio="xMidYMid meet">

<g transform="translate(0.000000,128.000000) scale(0.100000,-0.100000)"
fill="#000000" stroke="none">
<path d="M1189 1264 c-9 -8 -35 -18 -58 -21 -49 -7 -85 -44 -78 -81 6 -29 -5
-35 -38 -20 -35 16 -51 -6 -29 -39 16 -25 5 -30 -26 -10 -27 16 -44 -7 -28
-37 10 -18 4 -27 -47 -73 l-59 -52 -44 26 c-97 57 -168 48 -289 -34 -81 -55
-83 -57 -68 -79 21 -33 19 -65 -8 -102 -34 -45 -96 -92 -122 -92 -22 0 -75 44
-75 62 0 28 -164 -131 -193 -187 -33 -64 -30 -173 8 -250 38 -79 159 -200 237
-238 147 -71 256 -39 397 116 l53 59 -31 20 c-50 32 -53 78 -8 128 69 77 115
95 161 65 23 -15 25 -14 80 67 83 124 91 192 33 291 l-26 43 52 59 c46 51 55
57 73 47 30 -16 53 1 37 28 -20 31 -15 42 10 26 33 -22 55 -6 39 29 -15 33 -9
44 20 38 30 -6 78 31 78 60 0 11 10 40 21 65 l21 43 -28 30 c-32 33 -43 35
-65 13z m14 -91 c-8 -27 -17 -54 -19 -60 -2 -7 -8 -13 -14 -13 -17 0 -72 58
-68 72 2 6 25 16 51 23 26 7 50 15 54 18 11 12 11 8 -4 -40z m-290 -291 c-102
-114 -195 -216 -205 -227 -18 -19 -18 -19 -45 8 l-28 27 60 54 c33 29 134 121
225 203 91 83 168 149 173 146 4 -2 -77 -97 -180 -211z m-174 40 c19 -9 36
-21 37 -27 1 -5 -26 -34 -59 -64 -34 -30 -84 -74 -111 -99 l-48 -45 65 -64 64
-65 45 48 c25 27 69 77 99 111 30 33 59 60 64 59 19 -4 45 -71 45 -114 0 -44
-21 -93 -62 -148 -20 -26 -27 -30 -51 -23 -39 11 -80 -4 -132 -47 -54 -44 -95
-109 -95 -150 0 -16 10 -45 21 -63 l21 -35 -58 -56 c-79 -76 -136 -98 -211
-82 -54 11 -143 55 -143 70 0 5 54 55 120 113 l119 104 -62 63 c-34 34 -64 61
-68 60 -3 -2 -53 -56 -110 -121 -115 -132 -105 -130 -152 -42 -29 55 -29 145
0 200 12 22 44 62 71 89 l50 49 30 -22 c43 -30 90 -27 147 11 50 33 105 101
117 144 3 13 3 36 -1 52 -7 25 -4 30 57 70 74 48 131 55 191 24z m-349 -572
c0 -10 -197 -180 -209 -180 -30 0 -13 30 70 125 l93 105 23 -22 c13 -12 23
-24 23 -28z"/>
</g>
</svg>
