<?xml version="1.0" standalone="no"?>
<!DOCTYPE svg PUBLIC "-//W3C//DTD SVG 20010904//EN"
 "http://www.w3.org/TR/2001/REC-SVG-20010904/DTD/svg10.dtd">
<svg version="1.0" xmlns="http://www.w3.org/2000/svg"
 width="128.000000pt" height="128.000000pt" viewBox="0 0 128.000000 128.000000"
 preserveAspectRatio="xMidYMid meet">

<g transform="translate(0.000000,128.000000) scale(0.100000,-0.100000)"
fill="#000000" stroke="none">
<path d="M1218 1038 c-8 -7 -33 -38 -55 -68 -47 -65 -117 -131 -164 -156 -23
-11 -66 -19 -131 -22 l-98 -5 0 32 c0 17 5 31 10 31 6 0 10 9 10 19 0 32 -51
42 -85 17 -19 -14 -19 -15 -1 -34 28 -32 17 -56 -27 -60 -35 -3 -37 -2 -37 27
0 17 5 31 10 31 6 0 10 9 10 20 0 22 -36 36 -69 25 -21 -6 -30 -45 -11 -45 6
0 10 -13 10 -30 0 -28 -2 -30 -40 -30 -34 0 -40 3 -40 22 0 12 8 30 17 41 17
18 17 19 -2 33 -34 25 -85 15 -85 -17 0 -10 5 -19 10 -19 16 0 11 -47 -6 -54
-9 -3 -82 -6 -164 -6 -147 0 -148 0 -164 25 -20 31 -74 34 -99 7 -26 -29 -24
-163 3 -187 29 -26 70 -22 95 9 18 22 29 26 72 26 l51 0 -15 -47 c-30 -99 1
-218 74 -283 62 -55 109 -63 333 -59 182 4 186 4 245 34 84 42 117 96 123 205
2 44 6 80 9 80 2 0 16 -6 32 -14 34 -18 86 -75 140 -154 50 -74 75 -91 91 -63
15 29 14 653 -2 669 -15 15 -30 15 -50 0z m12 -329 l0 -261 -43 58 c-52 71
-108 121 -156 142 -21 8 -82 17 -146 20 -78 3 -112 9 -118 18 -11 19 -47 18
-47 -1 0 -11 -11 -15 -39 -15 -25 0 -41 5 -45 15 -3 8 -12 15 -21 15 -9 0 -18
-7 -21 -15 -4 -10 -20 -15 -44 -15 -24 0 -40 5 -44 15 -8 21 -33 19 -45 -4 -6
-11 -26 -21 -50 -25 -60 -9 -101 -61 -101 -128 0 -73 28 -114 89 -132 27 -8
58 -20 69 -27 17 -11 24 -11 34 -1 16 16 73 16 98 0 15 -10 22 -10 32 0 15 15
72 16 97 1 15 -10 22 -8 40 10 11 11 27 21 35 21 22 0 74 57 80 87 2 16 8 49
11 76 5 41 9 47 31 47 23 0 24 -3 24 -59 0 -71 -14 -117 -49 -155 -47 -52 -80
-59 -276 -64 -214 -5 -253 3 -307 59 -75 78 -73 226 4 295 52 48 59 49 363 54
278 5 292 6 338 29 50 25 137 106 178 165 13 20 25 36 27 36 1 0 2 -117 2
-261z m-1150 21 c0 -47 -3 -60 -15 -60 -12 0 -15 13 -15 60 0 47 3 60 15 60
12 0 15 -13 15 -60z m210 0 c-20 -13 -160 -13 -160 0 0 6 36 10 88 10 60 0 82
-3 72 -10z m170 -205 c0 -84 0 -85 -25 -85 -38 0 -75 42 -75 85 0 43 37 85 75
85 25 0 25 -1 25 -85z m130 0 l0 -85 -40 0 -40 0 0 85 0 85 40 0 40 0 0 -85z
m130 0 l0 -85 -40 0 -40 0 0 85 0 85 40 0 40 0 0 -85z m120 35 c0 -60 -14 -94
-46 -109 l-24 -11 0 85 0 85 35 0 35 0 0 -50z"/>
</g>
</svg>
